<svg width="1000" height="343" viewBox="0 0 1000 343" fill="none" xmlns="http://www.w3.org/2000/svg">
<path d="M303.6 232.2V343H243.6V285H46V343H-14L-13.6 232.2H-2.4C14.4 231.667 26.2667 219.4 33.2 195.4C40.1333 171.4 44.4 137.133 46 92.6L49.2 4.99998H264.4V232.2H303.6ZM103.2 98.6C101.867 131.933 99.0667 159.933 94.8 182.6C90.5333 205 84 221.533 75.2 232.2H200.4V57.8H104.4L103.2 98.6ZM480.822 289.8C451.755 289.8 425.489 283.533 402.022 271C378.822 258.467 360.555 241.267 347.222 219.4C334.155 197.267 327.622 172.467 327.622 145C327.622 117.533 334.155 92.8667 347.222 71C360.555 48.8667 378.822 31.5333 402.022 19C425.489 6.46666 451.755 0.199995 480.822 0.199995C509.889 0.199995 536.022 6.46666 559.222 19C582.422 31.5333 600.689 48.8667 614.022 71C627.355 92.8667 634.022 117.533 634.022 145C634.022 172.467 627.355 197.267 614.022 219.4C600.689 241.267 582.422 258.467 559.222 271C536.022 283.533 509.889 289.8 480.822 289.8ZM480.822 234.6C497.355 234.6 512.289 230.867 525.622 223.4C538.955 215.667 549.355 205 556.822 191.4C564.555 177.8 568.422 162.333 568.422 145C568.422 127.667 564.555 112.2 556.822 98.6C549.355 85 538.955 74.4667 525.622 67C512.289 59.2667 497.355 55.4 480.822 55.4C464.289 55.4 449.355 59.2667 436.022 67C422.689 74.4667 412.155 85 404.422 98.6C396.955 112.2 393.222 127.667 393.222 145C393.222 162.333 396.955 177.8 404.422 191.4C412.155 205 422.689 215.667 436.022 223.4C449.355 230.867 464.289 234.6 480.822 234.6ZM938.741 285L938.341 117.4L855.941 255.4H827.141L744.741 120.6V285H683.941V4.99998H737.541L842.341 179L945.541 4.99998H999.141L999.541 285H938.741Z" fill="white" fill-opacity="0.02"/>
</svg>
