<svg width="8" height="13" viewBox="0 0 8 13" fill="none" xmlns="http://www.w3.org/2000/svg">
<path d="M4.90592 6.99026L0.416755 11.4796C0.293145 11.6029 0.225145 11.7678 0.225145 11.9436C0.225145 12.1195 0.293145 12.2843 0.416755 12.4078L0.81012 12.801C0.933535 12.9247 1.09851 12.9928 1.27432 12.9928C1.45012 12.9928 1.6149 12.9247 1.73841 12.801L7.08348 7.45602C7.20748 7.33211 7.27539 7.16655 7.2749 6.99055C7.27539 6.81377 7.20758 6.64841 7.08348 6.52441L1.74339 1.1846C1.61988 1.06089 1.4551 0.992796 1.27919 0.992796C1.10339 0.992796 0.938607 1.06089 0.814998 1.1846L0.42173 1.57777C0.165827 1.83368 0.165827 2.25026 0.42173 2.50607L4.90592 6.99026Z" fill="#939393"/>
</svg>
