<svg width="41" height="18" viewBox="0 0 41 18" fill="none" xmlns="http://www.w3.org/2000/svg">
<path d="M39.2889 9.404C38.8469 8.391 37.9759 7.827 36.6739 7.349C35.6609 6.975 35.1039 6.682 34.4229 5.833C31.9009 2.704 31.0629 0 27.3089 0L18.4829 0.068C16.9629 0.068 15.6029 1.431 14.3979 2.38L9.49587 6.94C9.20289 7.21095 8.84162 7.39695 8.45087 7.478L3.02387 8.59C2.52387 8.722 2.12187 9.093 1.94687 9.589L0.312873 14.092C-0.00512698 15.17 0.169873 15.655 0.744873 16.49C1.31887 17.328 1.80087 17.788 1.80087 17.788L5.88487 17.792C5.88187 17.71 5.87487 17.299 5.87487 17.217C5.87487 14.681 7.88687 12.626 10.3699 12.626C12.8529 12.626 14.8649 14.681 14.8649 17.217C14.8649 17.299 14.8579 17.713 14.8549 17.792H25.3249C25.3197 17.6004 25.3164 17.4087 25.3149 17.217C25.3149 14.681 27.3269 12.626 29.8099 12.626C32.2929 12.626 34.3049 14.681 34.3049 17.217C34.3049 17.299 34.2979 17.713 34.2949 17.792H37.5339C39.5429 17.792 40.2099 16.104 40.1529 14.071C40.0849 12.034 39.7709 10.5 39.2889 9.404ZM22.2929 8.291C22.2929 8.641 22.0249 8.926 21.6969 8.926H11.7189C11.3589 8.926 11.1909 8.448 11.4619 8.198C11.4619 8.198 16.2599 3.543 16.8949 3.068C17.5299 2.594 18.1369 2.223 18.9389 2.223L21.6939 2.226C22.0219 2.226 22.2899 2.512 22.2899 2.861V8.291H22.2929ZM32.5609 8.926H24.1729C23.8449 8.926 23.5769 8.641 23.5769 8.291V2.865C23.5769 2.515 23.8409 2.23 24.1699 2.23L27.7159 2.212C29.1289 2.205 29.6819 3.061 30.3309 3.974C31.1049 5.066 32.7179 7.574 32.9809 8.049C33.2419 8.519 32.8959 8.926 32.5609 8.926Z" fill="#16162D"/>
</svg>
