<svg width="38" height="26" viewBox="0 0 38 26" fill="none" xmlns="http://www.w3.org/2000/svg">
<g clip-path="url(#clip0)">
<path d="M36.253 4.249V0.980001C36.253 0.851221 36.2276 0.723704 36.1783 0.60474C36.129 0.485775 36.0567 0.377697 35.9656 0.286682C35.8745 0.195668 35.7663 0.123502 35.6473 0.0743114C35.5283 0.0251206 35.4008 -0.000130898 35.272 5.10251e-07H27.376C27.2472 4.43206e-07 27.1197 0.025382 27.0007 0.0746941C26.8818 0.124006 26.7737 0.196282 26.6827 0.287389C26.5917 0.378497 26.5195 0.486649 26.4703 0.605664C26.4211 0.724678 26.3959 0.852221 26.396 0.981001V4.25C26.3959 4.37878 26.4211 4.50632 26.4703 4.62534C26.5195 4.74435 26.5917 4.8525 26.6827 4.94361C26.7737 5.03472 26.8818 5.10699 27.0007 5.15631C27.1197 5.20562 27.2472 5.231 27.376 5.231H29.841V11.223H22.474C21.721 9.046 19.777 7.276 17.024 7.276C14.273 7.276 12.328 9.051 11.575 11.223H8.643C8.196 10.142 7.447 9.758 6.507 9.357V5.23H8.972C9.10078 5.23 9.22829 5.20462 9.34726 5.15531C9.46622 5.10599 9.5743 5.03372 9.66531 4.94261C9.75633 4.8515 9.8285 4.74335 9.87769 4.62434C9.92688 4.50532 9.95213 4.37778 9.952 4.249V0.980001C9.952 0.720088 9.84875 0.470821 9.66496 0.287036C9.48118 0.10325 9.23191 5.10251e-07 8.972 5.10251e-07H1.074C0.945217 4.43206e-07 0.8177 0.025382 0.698735 0.0746941C0.579771 0.124006 0.471692 0.196282 0.380678 0.287389C0.289663 0.378497 0.217498 0.486649 0.168307 0.605664C0.119116 0.724678 0.0938648 0.852221 0.0939962 0.981001V4.25C0.0938646 4.37886 0.119149 4.50649 0.168402 4.62557C0.217656 4.74465 0.289911 4.85285 0.381031 4.94397C0.472152 5.03509 0.580348 5.10734 0.699428 5.15659C0.818508 5.20585 0.946132 5.23113 1.075 5.231H3.54V9.357C2.006 9.82 0.960996 11.149 0.960996 12.902C0.960996 14.654 1.974 15.964 3.54 16.448V20.77H1.074C0.945301 20.77 0.817865 20.7953 0.698966 20.8446C0.580067 20.8938 0.472033 20.966 0.381032 21.057C0.29003 21.148 0.217844 21.2561 0.168594 21.375C0.119345 21.4939 0.0939962 21.6213 0.0939962 21.75V25.018C0.093733 25.1469 0.11892 25.2747 0.168115 25.3939C0.217309 25.5131 0.289543 25.6214 0.380677 25.7126C0.47181 25.8038 0.580051 25.8762 0.699197 25.9255C0.818342 25.9748 0.946048 26.0001 1.075 26H8.971C9.09978 26 9.22729 25.9746 9.34626 25.9253C9.46522 25.876 9.5733 25.8037 9.66431 25.7126C9.75533 25.6215 9.82749 25.5134 9.87669 25.3943C9.92588 25.2753 9.95113 25.1478 9.951 25.019V21.75C9.95113 21.6212 9.92588 21.4937 9.87669 21.3747C9.82749 21.2556 9.75533 21.1475 9.66431 21.0564C9.5733 20.9653 9.46522 20.893 9.34626 20.8437C9.22729 20.7944 9.09978 20.769 8.971 20.769H6.506V16.447C7.446 16.05 8.195 15.662 8.642 14.58H11.576C12.33 16.757 14.251 18.528 17.026 18.528C19.8 18.528 21.722 16.753 22.475 14.58H29.841V20.764H27.376C27.2471 20.764 27.1195 20.7894 27.0005 20.8388C26.8815 20.8882 26.7734 20.9605 26.6823 21.0517C26.5913 21.143 26.5191 21.2512 26.47 21.3704C26.4209 21.4895 26.3957 21.6171 26.396 21.746V25.013C26.3959 25.1418 26.4211 25.2693 26.4703 25.3883C26.5195 25.5074 26.5917 25.6155 26.6827 25.7066C26.7737 25.7977 26.8818 25.87 27.0007 25.9193C27.1197 25.9686 27.2472 25.994 27.376 25.994H35.272C35.4008 25.9941 35.5283 25.9689 35.6473 25.9197C35.7663 25.8705 35.8745 25.7983 35.9656 25.7073C36.0567 25.6163 36.129 25.5082 36.1783 25.3893C36.2276 25.2703 36.253 25.1428 36.253 25.014V21.746C36.2533 21.6171 36.2281 21.4893 36.1789 21.3701C36.1297 21.2509 36.0574 21.1426 35.9663 21.0514C35.8752 20.9602 35.7669 20.8878 35.6478 20.8385C35.5287 20.7892 35.4009 20.7639 35.272 20.764H32.807V5.225H35.272C35.4008 5.22646 35.5286 5.20226 35.648 5.15379C35.7673 5.10532 35.8758 5.03356 35.9672 4.94271C36.0585 4.85185 36.1308 4.74371 36.1799 4.62461C36.2289 4.5055 36.2538 4.37782 36.253 4.249ZM17.026 15.458C16.6909 15.4581 16.359 15.3922 16.0494 15.264C15.7398 15.1358 15.4584 14.9478 15.2215 14.7108C14.9846 14.4738 14.7967 14.1924 14.6686 13.8827C14.5405 13.573 14.4747 13.2411 14.475 12.906C14.475 12.2297 14.7437 11.5811 15.2219 11.1029C15.7001 10.6247 16.3487 10.356 17.025 10.356C17.36 10.3557 17.6918 10.4215 18.0015 10.5495C18.3111 10.6776 18.5924 10.8654 18.8294 11.1022C19.0664 11.339 19.2544 11.6202 19.3827 11.9297C19.511 12.2392 19.577 12.571 19.577 12.906C19.5754 13.5822 19.3062 14.2302 18.8281 14.7084C18.3501 15.1867 17.7022 15.4562 17.026 15.458Z" fill="#16162D"/>
</g>
<defs>
<clipPath id="clip0">
<rect width="37" height="26" fill="white" transform="translate(0.0939941)"/>
</clipPath>
</defs>
</svg>
