<svg width="20" height="20" viewBox="0 0 20 20" fill="none" xmlns="http://www.w3.org/2000/svg">
<g clip-path="url(#clip0)">
<path d="M8.45607 0.5C3.84252 0.5 0.0888672 4.25365 0.0888672 8.8672C0.0888672 13.481 3.84252 17.2344 8.45607 17.2344C13.0699 17.2344 16.8233 13.481 16.8233 8.8672C16.8233 4.25365 13.0699 0.5 8.45607 0.5ZM8.45607 15.6897C4.69418 15.6897 1.63358 12.6291 1.63358 8.86724C1.63358 5.10535 4.69418 2.04471 8.45607 2.04471C12.218 2.04471 15.2785 5.10531 15.2785 8.8672C15.2785 12.6291 12.218 15.6897 8.45607 15.6897Z" fill="black"/>
<path d="M18.8626 18.1816L14.4344 13.7534C14.1327 13.4517 13.644 13.4517 13.3423 13.7534C13.0405 14.0549 13.0405 14.5441 13.3423 14.8455L17.7705 19.2737C17.9213 19.4246 18.1188 19.5 18.3165 19.5C18.514 19.5 18.7117 19.4246 18.8626 19.2737C19.1643 18.9723 19.1643 18.4831 18.8626 18.1816Z" fill="black"/>
</g>
<defs>
<clipPath id="clip0">
<rect width="19" height="19" fill="white" transform="translate(0.0888672 0.5)"/>
</clipPath>
</defs>
</svg>
