<svg width="20" height="20" viewBox="0 0 20 20" fill="none" xmlns="http://www.w3.org/2000/svg">
<path d="M4.13936 18.5668H3.55947C3.06865 18.5668 2.67236 18.168 2.67236 17.6781V9.58301" stroke="white" stroke-miterlimit="10" stroke-linecap="round" stroke-linejoin="round"/>
<path d="M16.9277 9.58301L17.9294 10.4681L19.5091 8.67425L16.9277 6.39233" stroke="white" stroke-miterlimit="10" stroke-linecap="round" stroke-linejoin="round"/>
<path d="M3.85938 8.53215L9.79827 3.28174L15.6117 8.41924" stroke="white" stroke-miterlimit="10" stroke-linecap="round" stroke-linejoin="round"/>
<path d="M16.1024 5.66382L9.79811 0.0910645L0.0908203 8.6742L1.67053 10.468L2.67216 9.58296" stroke="white" stroke-miterlimit="10" stroke-linecap="round" stroke-linejoin="round"/>
<path d="M14.5029 3.28169V2.5769" stroke="white" stroke-miterlimit="10" stroke-linecap="round" stroke-linejoin="round"/>
<path d="M16.9277 6.39224V2.5769" stroke="white" stroke-miterlimit="10" stroke-linecap="round" stroke-linejoin="round"/>
<path d="M17.7367 1.7755V2.57681H13.6938V1.41309H16.9278" stroke="white" stroke-miterlimit="10" stroke-linecap="round" stroke-linejoin="round"/>
<path d="M2.87939 19.9089H17.3385" stroke="white" stroke-miterlimit="10" stroke-linecap="round" stroke-linejoin="round"/>
<path d="M16.9277 16.8094V9.58301" stroke="white" stroke-miterlimit="10" stroke-linecap="round" stroke-linejoin="round"/>
<path d="M8.78025 17.3302V14.0812C8.78025 13.7388 8.50394 13.4602 8.16037 13.4602H6.02076C5.67901 13.4602 5.40088 13.737 5.40088 14.0812V17.9148C5.40088 18.3682 5.76808 18.7361 6.22073 18.7361H15.8826" stroke="white" stroke-miterlimit="10" stroke-linecap="round" stroke-linejoin="round"/>
</svg>
