<svg width="28" height="28" viewBox="0 0 28 28"  xmlns="http://www.w3.org/2000/svg">
<g clip-path="url(#clip0)">
<path d="M23.8694 9.38966L16.0116 11.3595L14.9062 10.2541H10.3474V9.10843H12.0675V7.52661H7.0454V9.10843H8.76554V10.2541H0.334961V15.2338H3.31049V18.9571H15.6928L21.6421 11.5788L23.3846 11.142L24.5398 12.2971L25.6583 11.1786L23.8694 9.38966ZM3.31049 13.652H1.91678V11.836H3.31049V13.652Z" />
<path d="M26.9047 16.2115L25.099 13.7285L23.2932 16.2115C22.6431 17.1055 22.7386 18.3217 23.5203 19.1032C23.942 19.525 24.5027 19.7572 25.099 19.7572C25.6953 19.7572 26.256 19.525 26.6776 19.1032C27.4594 18.3217 27.5548 17.1055 26.9047 16.2115Z" />
</g>
<defs>
<clipPath id="clip0">
<rect width="27" height="27" fill="white" transform="translate(0.334961 0.14209)"/>
</clipPath>
</defs>
</svg>
