<svg width="21" height="21" viewBox="0 0 21 21" fill="none" xmlns="http://www.w3.org/2000/svg">
<g clip-path="url(#clip0)">
<path d="M10.0888 11.7652C4.07951 11.7652 0.77002 14.608 0.77002 19.7701C0.77002 20.1732 1.09678 20.5 1.49994 20.5H18.6776C19.0807 20.5 19.4075 20.1732 19.4075 19.7701C19.4075 14.6083 16.098 11.7652 10.0888 11.7652ZM2.25643 19.0402C2.54354 15.1805 5.1749 13.2251 10.0888 13.2251C15.0026 13.2251 17.634 15.1805 17.9214 19.0402H2.25643Z" fill="black"/>
<path d="M10.0889 0.5C7.32856 0.5 5.24707 2.62336 5.24707 5.43895C5.24707 8.33699 7.4191 10.6944 10.0889 10.6944C12.7587 10.6944 14.9308 8.33699 14.9308 5.43918C14.9308 2.62336 12.8493 0.5 10.0889 0.5ZM10.0889 9.2348C8.22395 9.2348 6.70692 7.53211 6.70692 5.43918C6.70692 3.42313 8.1293 1.95984 10.0889 1.95984C12.0172 1.95984 13.4709 3.45547 13.4709 5.43918C13.4709 7.53211 11.9539 9.2348 10.0889 9.2348Z" fill="black"/>
</g>
<defs>
<clipPath id="clip0">
<rect width="20" height="20" fill="white" transform="translate(0.0888672 0.5)"/>
</clipPath>
</defs>
</svg>
