<svg width="163" height="16" viewBox="0 0 163 16" fill="none" xmlns="http://www.w3.org/2000/svg">
<path opacity="0.75" d="M7.10187 0.0844727H0.537109V15.5703H7.10187V0.0844727Z" fill="white" fill-opacity="0.2"/>
<path opacity="0.75" d="M91.9671 0.0844727H85.4023V15.5703H91.9671V0.0844727Z" fill="white" fill-opacity="0.2"/>
<path opacity="0.75" d="M7.10187 0.0844727H0.537109V11.2261H7.10187C10.1654 11.2261 12.6488 8.73203 12.6488 5.6553C12.6488 2.57857 10.1654 0.0844727 7.10187 0.0844727Z" fill="white" fill-opacity="0.2"/>
<path opacity="0.75" d="M28.8315 15.5703H18.416V0.0844727L28.8315 15.5703Z" fill="white" fill-opacity="0.2"/>
<path opacity="0.75" d="M23.2845 0.0844727H18.416V11.2261H23.2845C24.1016 11.2261 24.8766 11.0472 25.5752 10.7287C27.4953 9.85274 28.8315 7.91143 28.8315 5.6553C28.8315 2.57857 26.3481 0.0844727 23.2845 0.0844727Z" fill="white" fill-opacity="0.2"/>
<path opacity="0.75" d="M70.7561 0.0844727L62.6797 15.5703H70.7561H78.8327L70.7561 0.0844727Z" fill="white" fill-opacity="0.2"/>
<path opacity="0.75" d="M62.4514 0.0844727L54.375 15.5703H62.4514H70.5278L62.4514 0.0844727Z" fill="white" fill-opacity="0.2"/>
<path opacity="0.75" d="M42.6736 15.5703C46.9316 15.5703 50.3834 12.1037 50.3834 7.82741C50.3834 3.5511 46.9316 0.0844727 42.6736 0.0844727C38.4157 0.0844727 34.9639 3.5511 34.9639 7.82741C34.9639 12.1037 38.4157 15.5703 42.6736 15.5703Z" fill="white" fill-opacity="0.2"/>
<path opacity="0.75" d="M154.017 0.0844727L145.94 15.5704H154.017H162.093L154.017 0.0844727Z" fill="white" fill-opacity="0.2"/>
<path opacity="0.75" d="M145.711 0.0844727L137.635 15.5704H145.711H153.788L145.711 0.0844727Z" fill="white" fill-opacity="0.2"/>
<path opacity="0.75" d="M126.207 15.5704C130.465 15.5704 133.917 12.1037 133.917 7.82741C133.917 3.5511 130.465 0.0844727 126.207 0.0844727C121.949 0.0844727 118.497 3.5511 118.497 7.82741C118.497 12.1037 121.949 15.5704 126.207 15.5704Z" fill="white" fill-opacity="0.2"/>
<path opacity="0.75" d="M111.606 2.64603C110.195 1.07353 108.151 0.0844727 105.878 0.0844727C105.318 0.0844727 104.773 0.145803 104.248 0.259469C100.773 1.01076 98.168 4.11305 98.168 7.82741C98.168 11.5418 100.773 14.6441 104.248 15.3954C104.773 15.509 105.318 15.5704 105.878 15.5704C108.151 15.5704 110.195 14.5813 111.606 13.0088L108.616 7.82741L111.606 2.64603Z" fill="white" fill-opacity="0.2"/>
<path opacity="0.75" d="M111.606 2.64603C110.195 1.07353 108.152 0.0844727 105.878 0.0844727C105.319 0.0844727 104.774 0.145803 104.248 0.259469L108.616 7.82741L111.606 2.64603Z" fill="white" fill-opacity="0.2"/>
<path opacity="0.75" d="M104.248 15.3951C104.774 15.5088 105.319 15.5701 105.878 15.5701C108.152 15.5701 110.195 14.581 111.606 13.0085L108.616 7.82715L104.248 15.3951Z" fill="white" fill-opacity="0.2"/>
<path opacity="0.75" d="M37.2217 13.3024C38.6169 14.7035 40.5444 15.5701 42.6734 15.5701C46.9314 15.5701 50.3832 12.1036 50.3832 7.8272C50.3832 5.68903 49.5203 3.75324 48.1251 2.35205L37.2217 13.3024Z" fill="white" fill-opacity="0.2"/>
<path opacity="0.75" d="M120.756 13.3024C122.151 14.7036 124.079 15.5702 126.208 15.5702C130.466 15.5702 133.917 12.1036 133.917 7.82721C133.917 5.68903 133.054 3.75324 131.659 2.35205L120.756 13.3024Z" fill="white" fill-opacity="0.2"/>
</svg>
