<svg width="25" height="19" viewBox="0 0 25 19" fill="none" xmlns="http://www.w3.org/2000/svg">
<g clip-path="url(#clip0)">
<path d="M6.7124 13.7448C7.8401 13.051 10.3562 12.5426 11.6908 12.2029C14.358 11.5133 17.261 11.4907 19.6737 11.9827C23.0133 12.6558 22.7443 16.5629 22.2808 18.8128" stroke="white" stroke-miterlimit="10" stroke-linecap="round" stroke-linejoin="round"/>
<path d="M15.0076 5.70422C15.2104 3.55926 16.1105 1.2352 16.9257 0.103027C17.8817 1.43694 19.0135 4.79024 18.8542 7.27074C18.759 8.68905 18.2396 9.82534 17.0209 10.1279C16.9878 10.1382 16.9588 10.1465 16.9257 10.1506C15.2352 9.59479 14.8131 7.72773 15.0076 5.70422Z" stroke="white" stroke-miterlimit="10" stroke-linecap="round" stroke-linejoin="round"/>
<path d="M9.89052 5.40774C10.6002 7.62475 10.8423 10.5581 9.00078 11.0048C8.98216 11.0151 8.95733 11.0192 8.93457 11.0233C7.17164 10.4428 7.20061 8.01587 7.77791 5.94501C8.07587 4.87047 8.5166 3.89474 8.93457 3.31836C9.2615 3.77741 9.61119 4.53494 9.89052 5.40774Z" stroke="white" stroke-miterlimit="10" stroke-linecap="round" stroke-linejoin="round"/>
<path d="M2.87607 15.5686C-0.610476 14.4179 1.29316 7.7236 2.87607 5.521C3.46785 6.34646 4.13205 7.95003 4.50657 9.63801C4.78177 10.8731 4.90799 12.1514 4.74245 13.2075C4.56658 14.3808 4.03687 15.2865 2.96504 15.5459C2.93607 15.5541 2.90297 15.5644 2.87607 15.5686Z" stroke="white" stroke-miterlimit="10" stroke-linecap="round" stroke-linejoin="round"/>
<path d="M4.86035 13.2239C5.52455 12.7937 6.1453 13.1148 6.75985 13.7426C8.23723 15.2618 9.67116 18.5842 11.5438 17.6847C13.5798 16.6987 14.6144 12.7196 15.6159 14.0823C16.3339 15.058 16.4891 16.2005 17.1926 16.5669C17.4719 16.7234 17.8382 16.746 18.3637 16.5916C18.6927 16.499 18.9928 16.5072 19.2617 16.5875C20.5157 16.9745 21.1592 18.8971 21.1592 18.8971" stroke="white" stroke-miterlimit="10" stroke-linecap="round" stroke-linejoin="round"/>
<path d="M0.103516 18.8972H1.4733H2.96517H22.3015H24.3252" stroke="white" stroke-miterlimit="10" stroke-linecap="round" stroke-linejoin="round"/>
<path d="M1.47347 18.8972C1.47347 18.8972 1.01412 16.5999 2.87637 15.5686" stroke="white" stroke-miterlimit="10" stroke-linecap="round" stroke-linejoin="round"/>
<path d="M17.021 10.1279V11.5998" stroke="white" stroke-miterlimit="10" stroke-linecap="round" stroke-linejoin="round"/>
<path d="M8.91846 11.2451L8.91846 12.6891L8.91846 12.7961" stroke="white" stroke-miterlimit="10" stroke-linecap="round" stroke-linejoin="round"/>
</g>
<defs>
<clipPath id="clip0">
<rect width="24.4286" height="19" fill="white"/>
</clipPath>
</defs>
</svg>
