<svg width="13" height="14" viewBox="0 0 13 14"  xmlns="http://www.w3.org/2000/svg">
<path d="M12.1962 10.3129L9.72733 9.18067C9.50718 9.07845 9.24771 9.10204 9.05114 9.24357L8.07616 9.94335C7.77738 10.1556 7.3921 10.1871 7.06973 10.0141C6.66873 9.80182 3.79884 6.9162 3.58655 6.52306C3.41357 6.20069 3.44502 5.81542 3.65731 5.51664L4.35709 4.54166C4.49862 4.34509 4.52221 4.08562 4.41999 3.86546L3.28776 1.39657C3.1541 1.10565 2.86317 0.924805 2.54867 0.924805H1.73094C1.62873 0.924805 1.52651 0.940531 1.43216 0.979844C-0.0932094 1.63245 0.00114358 3.52737 0.00114358 3.52737C0.00114358 6.33436 2.32851 8.92906 3.43715 10.0063C4.40427 11.0284 7.11691 13.6074 10.0733 13.6074C10.0733 13.6074 11.9603 13.7017 12.6208 12.1764C12.6601 12.082 12.6759 11.9798 12.6759 11.8776V11.0599C12.6759 10.7296 12.4871 10.4466 12.1962 10.3129Z"  />
</svg>
