<svg width="15" height="9" viewBox="0 0 15 9" fill="none" xmlns="http://www.w3.org/2000/svg">
<path d="M14.8056 4.07685C14.6738 3.92148 11.5252 0.277344 7.5001 0.277344C3.47486 0.277344 0.326354 3.92148 0.194297 4.077C-0.0647911 4.38163 -0.0647911 4.82365 0.194449 5.12858C0.326354 5.28394 3.47486 8.92793 7.5001 8.92793C11.5252 8.92793 14.6738 5.28364 14.8057 5.12828C15.0648 4.82365 15.0648 4.38163 14.8056 4.07685ZM8.72958 2.46642C9.00025 2.31867 9.37768 2.4882 9.5725 2.84492C9.76731 3.2018 9.70577 3.61091 9.43511 3.75866C9.1646 3.90656 8.78701 3.73688 8.59204 3.38016C8.39738 3.02328 8.45877 2.61416 8.72958 2.46642ZM7.5001 7.60766C4.68836 7.60766 2.32214 5.44829 1.50314 4.60264C2.0562 4.03146 3.31539 2.86183 4.94044 2.1624C4.62347 2.64463 4.43765 3.22083 4.43765 3.84106C4.43765 5.53237 5.80864 6.90336 7.49994 6.90336C9.19125 6.90336 10.5624 5.53237 10.5624 3.84106C10.5624 3.22083 10.3767 2.64463 10.0598 2.1624C11.6848 2.86198 12.9438 4.03146 13.4969 4.60264C12.6779 5.44875 10.3117 7.60766 7.5001 7.60766Z" fill="#CCCCCC"/>
</svg>
