<svg width="35" height="26" viewBox="0 0 35 26" fill="none" xmlns="http://www.w3.org/2000/svg">
<path d="M33.27 6.88H30.987C30.7656 6.88053 30.5534 6.96864 30.3968 7.12509C30.2402 7.28154 30.1518 7.49362 30.151 7.715V9.056H26.059L24.798 7.03C24.5988 6.68934 24.3139 6.40674 23.9716 6.21027C23.6293 6.01379 23.2416 5.91027 22.847 5.91H19.516V3.16H24.015C24.532 3.16 24.953 2.74 24.953 2.222V0.938001C24.953 0.814736 24.9287 0.692681 24.8815 0.578812C24.8343 0.464944 24.7651 0.361495 24.6779 0.274381C24.5907 0.187266 24.4872 0.118194 24.3733 0.0711143C24.2593 0.0240342 24.1373 -0.000130879 24.014 5.33098e-07H11.84C11.5912 5.33098e-07 11.3526 0.0988253 11.1767 0.274734C11.0008 0.450643 10.902 0.689227 10.902 0.938001V2.22C10.902 2.737 11.322 3.158 11.84 3.158H15.87V5.91H13.224C12.574 5.91 11.954 6.19 11.526 6.676L9.32299 9.052H7.44299C6.83599 9.052 6.34999 9.542 6.34999 10.144V13.909H3.35899V8.77C3.35899 8.64682 3.33473 8.52485 3.28759 8.41104C3.24045 8.29724 3.17136 8.19384 3.08426 8.10674C2.99716 8.01963 2.89375 7.95054 2.77995 7.9034C2.66615 7.85626 2.54417 7.832 2.42099 7.832H1.03099C0.78274 7.83226 0.544716 7.93093 0.36908 8.10638C0.193444 8.28183 0.0945233 8.51975 0.0939941 8.768L0.0939941 22.377C0.0939941 22.894 0.513994 23.315 1.03199 23.315H2.42099C2.93899 23.315 3.35899 22.895 3.35899 22.377V17.559H6.34899V21.408C6.34899 22.014 6.84099 22.501 7.44199 22.501H10.902L13.419 25.261C13.849 25.731 14.454 26 15.091 26H23.051C23.687 26 24.293 25.735 24.722 25.261L27.24 22.501H30.155V23.811C30.155 24.271 30.531 24.646 30.991 24.646H33.274C33.4933 24.6457 33.7036 24.5586 33.8588 24.4035C34.014 24.2485 34.1015 24.0383 34.102 23.819V7.698C34.0991 7.47944 34.0101 7.27084 33.8543 7.1175C33.6986 6.96416 33.4886 6.87845 33.27 6.879V6.88ZM24.815 16.13C24.815 16.648 24.532 17.068 24.178 17.068H12.358C12.008 17.068 11.72 16.648 11.72 16.13V15.064C11.72 14.546 12.004 14.126 12.357 14.126H24.178C24.528 14.126 24.815 14.546 24.815 15.064V16.13Z" fill="#16162D"/>
</svg>
