<svg width="17" height="24" viewBox="0 0 17 24" fill="none" xmlns="http://www.w3.org/2000/svg">
<path d="M8.88112 0.857574C4.40433 0.857574 0.762207 4.49969 0.762207 8.97642C0.762207 14.5322 8.18787 22.6884 8.4972 23.0329C8.78775 23.3565 8.77 23.356 9.06003 23.0329C9.36937 22.6884 17 14.5322 17 8.97642C16.9999 4.49969 13.3578 0.857574 8.88112 0.857574Z" fill="#5D92A3"/>
<path d="M9 14C11.7614 14 14 11.7614 14 9C14 6.23858 11.7614 4 9 4C6.23858 4 4 6.23858 4 9C4 11.7614 6.23858 14 9 14Z" fill="white"/>
<circle cx="9" cy="9" r="2" fill="#5D92A3"/>
</svg>
