<svg width="34" height="33" viewBox="0 0 34 33" fill="none" xmlns="http://www.w3.org/2000/svg">
<g clip-path="url(#clip0)">
<path d="M17.623 0.0286865H17.5656C8.53125 0.688686 1.22343 7.99651 0.568208 17.0261C0.55386 17.2365 0.625599 17.4374 0.769078 17.5904C0.917339 17.7482 1.11821 17.8391 1.33343 17.8391H8.76082C8.9569 17.8391 9.11951 17.6861 9.14343 17.49C9.63603 12.9656 13.4621 9.14912 18.0486 8.61347C18.2399 8.58956 18.3834 8.42695 18.3834 8.23564V0.798687C18.3834 0.583469 18.2973 0.3826 18.1347 0.234339C17.9913 0.100426 17.8143 0.0286865 17.623 0.0286865Z" fill="#16162D"/>
<path d="M19.6986 4.55783V8.46522C19.6986 9.21131 19.1438 9.83783 18.4025 9.92392C14.3756 10.3974 10.8891 13.8696 10.4538 17.8344C10.4165 18.1969 10.2464 18.5328 9.97617 18.7774C9.70597 19.022 9.35482 19.158 8.99036 19.1591H5.09253C5.37949 26.6774 11.5634 32.6843 19.1486 32.6843C26.9204 32.6843 33.219 26.3857 33.219 18.6139C33.2286 11.0287 27.2169 4.84479 19.6986 4.55783ZM19.1534 23.693C16.3508 23.693 14.0791 21.4213 14.0791 18.6187C14.0791 15.8161 16.3508 13.5444 19.1534 13.5444C21.956 13.5444 24.2277 15.8161 24.2277 18.6187C24.2325 21.4213 21.9608 23.693 19.1534 23.693Z" fill="#16162D"/>
</g>
<defs>
<clipPath id="clip0">
<rect width="33" height="33" fill="white" transform="translate(0.477295)"/>
</clipPath>
</defs>
</svg>
