<svg width="16" height="16" viewBox="0 0 16 16" fill="none" xmlns="http://www.w3.org/2000/svg">
<path d="M6.64283 3.71203V1.01897C6.64274 0.723091 6.40282 0.483304 6.10694 0.483398C5.95521 0.48343 5.81062 0.547842 5.70905 0.660562L0.887603 6.01776C0.711286 6.21414 0.704224 6.50964 0.870998 6.71421L5.69247 12.6071C5.87981 12.8361 6.21731 12.8699 6.44633 12.6825C6.57038 12.5811 6.64249 12.4293 6.64283 12.2691V9.59959C10.875 9.73726 13.5161 11.5464 14.7065 15.1175C14.7795 15.336 14.984 15.4833 15.2144 15.4834C15.2432 15.4835 15.2721 15.4811 15.3006 15.4764C15.5598 15.4341 15.7501 15.2103 15.7501 14.9477C15.7501 8.63903 11.9524 4.00452 6.64283 3.71203Z" fill="#CCCCCC"/>
</svg>
