<svg width="33" height="26" viewBox="0 0 33 26" fill="none" xmlns="http://www.w3.org/2000/svg">
<g clip-path="url(#clip0)">
<path d="M26.8393 4.66299V11.761C26.8388 11.8755 26.7931 11.9852 26.7123 12.0662C26.6314 12.1473 26.5218 12.1932 26.4073 12.194H18.2273V4.66399H15.2433V12.194H6.63632V4.66399H3.65332V22.708H6.63632V15.177H15.2443V22.707H18.2273V15.177H27.2773C27.611 15.177 27.9415 15.1112 28.2498 14.9835C28.5581 14.8557 28.8382 14.6684 29.0741 14.4323C29.31 14.1963 29.497 13.916 29.6245 13.6076C29.7521 13.2992 29.8176 12.9687 29.8173 12.635V4.66799H26.8393V4.66299Z" fill="#16162D"/>
<path d="M7.37631 6.993C7.69094 6.6888 7.94186 6.325 8.11444 5.92282C8.28701 5.52063 8.37779 5.08812 8.38148 4.65049C8.38517 4.21286 8.30169 3.77888 8.13592 3.37385C7.97014 2.96881 7.72539 2.60084 7.41593 2.29138C7.10647 1.98192 6.73849 1.73716 6.33346 1.57139C5.92843 1.40562 5.49445 1.32214 5.05682 1.32583C4.61919 1.32951 4.18667 1.42029 3.78449 1.59287C3.38231 1.76545 3.01851 2.01637 2.71431 2.331C2.1132 2.95272 1.78043 3.78573 1.78771 4.65049C1.795 5.51526 2.14176 6.34254 2.75327 6.95404C3.36477 7.56554 4.19205 7.91231 5.05682 7.91959C5.92158 7.92688 6.75459 7.59411 7.37631 6.993ZM19.9423 5.45C20.0418 5.02865 20.0573 4.59184 19.988 4.1645C19.9186 3.73715 19.7658 3.32766 19.5382 2.95938C19.3106 2.5911 19.0127 2.27126 18.6615 2.01811C18.3103 1.76497 17.9127 1.58347 17.4913 1.484C17.07 1.38452 16.6332 1.36901 16.2058 1.43835C15.7785 1.50769 15.369 1.66052 15.0007 1.88811C14.6324 2.11571 14.3126 2.41361 14.0594 2.76482C13.8063 3.11602 13.6248 3.51365 13.5253 3.935C13.4258 4.35634 13.4102 4.79317 13.4795 5.22054C13.5487 5.6479 13.7015 6.05744 13.9291 6.42576C14.3886 7.16963 15.1249 7.70046 15.9758 7.9015C16.8268 8.10253 17.7227 7.95729 18.4666 7.49774C19.2104 7.03818 19.7413 6.30194 19.9423 5.451V5.45ZM5.04931 26C5.48704 26.0076 5.92191 25.928 6.32854 25.7657C6.73517 25.6035 7.10541 25.3619 7.41767 25.055C7.72992 24.7482 7.97794 24.3822 8.14724 23.9785C8.31653 23.5747 8.40373 23.1413 8.40373 22.7035C8.40373 22.2657 8.31653 21.8323 8.14724 21.4285C7.97794 21.0248 7.72992 20.6588 7.41767 20.352C7.10541 20.0451 6.73517 19.8035 6.32854 19.6412C5.92191 19.479 5.48704 19.3994 5.04931 19.407C4.18497 19.4221 3.36111 19.776 2.75518 20.3926C2.14925 21.0091 1.80973 21.839 1.80973 22.7035C1.80973 23.568 2.14925 24.3979 2.75518 25.0144C3.36111 25.631 4.18497 25.9849 5.04931 26ZM16.7373 26C17.175 26.0076 17.6099 25.928 18.0165 25.7657C18.4232 25.6035 18.7934 25.3619 19.1057 25.055C19.4179 24.7482 19.6659 24.3822 19.8352 23.9785C20.0045 23.5747 20.0917 23.1413 20.0917 22.7035C20.0917 22.2657 20.0045 21.8323 19.8352 21.4285C19.6659 21.0248 19.4179 20.6588 19.1057 20.352C18.7934 20.0451 18.4232 19.8035 18.0165 19.6412C17.6099 19.479 17.175 19.3994 16.7373 19.407C15.873 19.4221 15.0491 19.776 14.4432 20.3926C13.8373 21.0091 13.4977 21.839 13.4977 22.7035C13.4977 23.568 13.8373 24.3979 14.4432 25.0144C15.0491 25.631 15.873 25.9849 16.7373 26ZM31.4903 5.193C31.5674 4.76234 31.5581 4.32064 31.4628 3.89364C31.3675 3.46664 31.1882 3.06287 30.9353 2.70587C30.6824 2.34887 30.3609 2.04577 29.9897 1.81425C29.6185 1.58272 29.2049 1.4274 28.773 1.35732C28.3412 1.28725 27.8997 1.30383 27.4743 1.40609C27.0489 1.50836 26.6481 1.69427 26.2953 1.95298C25.9425 2.2117 25.6447 2.53804 25.4193 2.91301C25.1938 3.28797 25.0453 3.70405 24.9823 4.137C24.8577 4.99306 25.0746 5.86378 25.5862 6.5614C26.0977 7.25902 26.863 7.72764 27.7169 7.86619C28.5708 8.00475 29.4449 7.80215 30.1508 7.30207C30.8567 6.802 31.3378 6.04453 31.4903 5.193Z" fill="#16162D"/>
</g>
<defs>
<clipPath id="clip0">
<rect width="32" height="26" fill="white" transform="translate(0.383301)"/>
</clipPath>
</defs>
</svg>
