<svg width="17" height="17" viewBox="0 0 17 17"  xmlns="http://www.w3.org/2000/svg">
<path d="M11.8257 9.91395L10.3917 9.25636C10.2639 9.197 10.1132 9.2107 9.99902 9.2929L9.43276 9.69932C9.25923 9.82262 9.03546 9.84089 8.84823 9.74042C8.61533 9.61713 6.94852 7.94118 6.82522 7.71285C6.72476 7.52562 6.74303 7.30186 6.86632 7.12833L7.27275 6.56207C7.35495 6.4479 7.36865 6.2972 7.30928 6.16934L6.65169 4.73542C6.57406 4.56646 6.4051 4.46143 6.22243 4.46143H5.74751C5.68814 4.46143 5.62877 4.47056 5.57397 4.49339C4.68805 4.87242 4.74285 5.97297 4.74285 5.97297C4.74285 7.60325 6.09457 9.11023 6.73846 9.73586C7.30015 10.3295 8.87563 11.8274 10.5927 11.8274C10.5927 11.8274 11.6887 11.8822 12.0723 10.9962C12.0951 10.9414 12.1042 10.8821 12.1042 10.8227V10.3478C12.1042 10.156 11.9946 9.99159 11.8257 9.91395Z"  />
<path d="M0.203613 16.3622L1.62839 11.9188C0.94797 10.7224 0.591775 9.37068 0.591775 7.987C0.591775 3.58022 4.17656 0 8.57877 0C12.981 0 16.5658 3.58479 16.5658 7.987C16.5658 12.3938 12.981 15.974 8.57877 15.974C7.19509 15.974 5.84337 15.6178 4.64692 14.9419L0.203613 16.3622ZM4.83415 13.3756L5.11272 13.5491C6.14934 14.1976 7.35035 14.5401 8.57877 14.5401C12.1955 14.5401 15.141 11.5992 15.141 7.97786C15.141 4.36111 12.2001 1.41565 8.57877 1.41565C4.95745 1.41565 2.02112 4.36568 2.02112 7.98243C2.02112 9.21085 2.36362 10.4073 3.01208 11.4485L3.18561 11.727L2.40928 14.1519L4.83415 13.3756Z"  />
</svg>
