<svg width="191" height="37" viewBox="0 0 191 37" fill="none" xmlns="http://www.w3.org/2000/svg">
<path d="M50.8861 14.4625H47.4332C46.7561 14.4625 46.1718 14.8362 45.8512 15.3822L43.5068 1.81752C43.5068 1.81752 41.7279 2.1407 39.7183 1.93229C36.9634 1.64913 32.3524 -1.59479 26.3235 1.84244C20.6789 -1.50871 16.05 1.69897 13.1281 1.95042C10.9222 2.13768 9.06838 1.84621 9.06838 1.84621L6.77863 15.4003C6.61952 15.1163 6.38862 14.8799 6.10942 14.7152C5.83022 14.5505 5.51271 14.4633 5.18921 14.4625H1.73623C1.53642 14.4624 1.33856 14.502 1.15395 14.579C0.969336 14.656 0.801594 14.769 0.660313 14.9114C0.519031 15.0539 0.40698 15.223 0.330564 15.4091C0.254149 15.5952 0.214868 15.7946 0.214966 15.9961V17.5667C0.214966 17.768 0.25432 17.9674 0.33078 18.1535C0.407239 18.3395 0.519306 18.5085 0.660578 18.6508C0.80185 18.7932 0.969558 18.9061 1.15412 18.9831C1.33868 19.0601 1.53649 19.0996 1.73623 19.0995H4.85065C4.27676 19.6059 3.81682 20.23 3.50163 20.9301C3.18643 21.6302 3.02326 22.3901 3.02304 23.159V34.9778C3.02304 35.3864 3.18403 35.7782 3.47058 36.0671C3.75714 36.3559 4.14579 36.5182 4.55104 36.5182H12.5266C12.9319 36.5182 13.3205 36.3559 13.6071 36.0671C13.8936 35.7782 14.0546 35.3864 14.0546 34.9778V31.6871H38.582V34.9778C38.582 35.1802 38.6215 35.3806 38.6984 35.5675C38.7752 35.7544 38.8878 35.9243 39.0298 36.0673C39.1718 36.2104 39.3403 36.3238 39.5258 36.4012C39.7113 36.4786 39.91 36.5183 40.1107 36.5182H48.0856C48.2863 36.5183 48.4851 36.4786 48.6705 36.4012C48.856 36.3238 49.0245 36.2104 49.1665 36.0673C49.3085 35.9243 49.4211 35.7544 49.4979 35.5675C49.5748 35.3806 49.6143 35.1802 49.6143 34.9778V23.159C49.6134 22.3899 49.4496 21.6298 49.1337 20.9298C48.8179 20.2297 48.3574 19.6057 47.783 19.0995H50.8794C51.0792 19.0997 51.2771 19.0602 51.4617 18.9833C51.6464 18.9063 51.8142 18.7935 51.9555 18.6511C52.0969 18.5088 52.209 18.3397 52.2855 18.1536C52.362 17.9676 52.4014 17.7681 52.4014 17.5667V15.9961C52.4029 15.7948 52.3648 15.5953 52.2893 15.409C52.2138 15.2227 52.1024 15.0533 51.9615 14.9107C51.8207 14.7681 51.6532 14.655 51.4687 14.5781C51.2843 14.5012 51.0865 14.4619 50.8869 14.4625H50.8861ZM9.87058 27.7575C9.11073 27.7575 8.38201 27.4532 7.84472 26.9116C7.30743 26.3699 7.00558 25.6353 7.00558 24.8693C7.00568 24.4902 7.07988 24.1148 7.22394 23.7647C7.368 23.4145 7.57909 23.0964 7.84516 22.8285C8.11123 22.5606 8.42706 22.3482 8.77459 22.2035C9.12212 22.0587 9.49455 21.9844 9.87058 21.9848C10.2463 21.9848 10.6184 22.0594 10.9655 22.2044C11.3127 22.3493 11.6281 22.5618 11.8938 22.8296C12.1595 23.0975 12.3702 23.4155 12.514 23.7654C12.6578 24.1154 12.7318 24.4905 12.7318 24.8693C12.732 25.6347 12.4308 26.3689 11.8942 26.9105C11.3577 27.4521 10.6298 27.7567 9.87058 27.7575ZM12.0158 16.7179C11.5244 16.7179 11.0323 16.6825 10.523 16.6069L12.2652 5.10825C12.3723 5.11203 12.4794 5.1158 12.5865 5.1158C14.2464 5.1158 15.7646 4.68087 17.2297 4.26027C18.5869 3.87215 19.9801 3.55954 21.2811 3.55954C22.4961 3.55954 23.5364 4.07301 24.6555 4.79942C24.8689 4.93533 24.994 5.17999 24.994 5.43899L24.8832 16.6674C23.0234 15.6019 21.5231 15.102 19.9943 15.102C18.6618 15.102 17.5248 15.472 16.3204 15.8669C15.0306 16.2838 13.7018 16.7179 12.0158 16.7179ZM35.1178 26.5426C35.1178 27.1648 34.6189 27.6677 34.0017 27.6677H18.5158C18.22 27.6677 17.9363 27.5492 17.7271 27.3384C17.518 27.1275 17.4005 26.8415 17.4005 26.5433C17.4005 26.2451 17.518 25.9592 17.7271 25.7483C17.9363 25.5374 18.22 25.419 18.5158 25.419H34.0025C34.6189 25.419 35.1178 25.9219 35.1178 26.5433V26.5426ZM36.3289 15.8632C35.1283 15.4683 33.992 15.0983 32.6558 15.0983C31.127 15.0983 29.6267 15.5974 27.7662 16.6643L27.656 5.43521C27.6542 5.30845 27.6844 5.18329 27.7436 5.07144C27.8028 4.95959 27.8891 4.8647 27.9946 4.79564C29.1166 4.06999 30.1578 3.55652 31.3802 3.55652C32.6872 3.55652 34.0916 3.86913 35.4563 4.26027C36.9169 4.68087 38.4285 5.11203 40.0673 5.11203C40.1707 5.11203 40.277 5.11203 40.3811 5.10448L42.1196 16.6032C41.6103 16.6787 41.1189 16.7149 40.6268 16.7149C38.9453 16.7179 37.6158 16.2838 36.3289 15.8632ZM42.8649 27.7575C42.4889 27.7574 42.1165 27.6826 41.7692 27.5374C41.4218 27.3922 41.1063 27.1794 40.8406 26.9111C40.5749 26.6429 40.3642 26.3245 40.2206 25.9742C40.077 25.6238 40.0032 25.2484 40.0036 24.8693C40.0036 24.1043 40.3051 23.3706 40.8417 22.8296C41.3783 22.2887 42.106 21.9848 42.8649 21.9848C43.6237 21.9848 44.3515 22.2887 44.8881 22.8296C45.4247 23.3706 45.7261 24.1043 45.7261 24.8693C45.7263 25.6347 45.4251 26.3689 44.8886 26.9105C44.352 27.4521 43.6241 27.7567 42.8649 27.7575ZM63.9633 19.1433H66.5571C67.0597 19.1433 67.4702 19.5526 67.4702 20.0623V35.6529C67.4702 36.1588 67.0635 36.5726 66.5571 36.5726H63.9633C63.4614 36.5726 63.051 36.1633 63.051 35.6529V20.0623C63.051 19.5564 63.4607 19.1433 63.9633 19.1433ZM79.9781 23.0155C78.4815 23.0155 77.2524 23.6369 76.215 24.682V35.6529C76.215 36.1588 75.809 36.5726 75.3027 36.5726H72.7088C72.207 36.5726 71.7965 36.1633 71.7965 35.6529V20.0623C71.7965 19.5564 72.2025 19.1433 72.7088 19.1433H75.2959C75.8015 19.1433 76.215 19.5564 76.215 20.0661V20.7306C77.2524 19.761 79.098 18.8337 81.172 18.8337C85.398 18.8337 88.2772 20.8854 88.2772 26.3455V35.6484C88.2772 36.155 87.8712 36.5681 87.3649 36.5681H84.771C84.6512 36.5682 84.5325 36.5444 84.4218 36.4983C84.3111 36.4521 84.2105 36.3843 84.1257 36.2989C84.041 36.2135 83.9738 36.1121 83.928 36.0004C83.8822 35.8888 83.8586 35.7692 83.8587 35.6484V27.121C83.8587 24.3339 82.4371 23.0155 79.9781 23.0155ZM96.5157 23.421V35.6529C96.5157 36.1588 96.1097 36.5726 95.6034 36.5726H93.0133C92.8929 36.5727 92.7738 36.5489 92.6626 36.5025C92.5514 36.4561 92.4504 36.3881 92.3653 36.3023C92.2802 36.2166 92.2127 36.1147 92.1667 36.0026C92.1207 35.8905 92.0971 35.7704 92.0972 35.6491V17.5659C92.0972 12.6306 94.4027 10.181 98.2444 10.1908C99.926 10.1946 101.323 10.7587 102.192 11.2654C102.855 11.6497 102.876 12.3678 102.652 12.9039C102.503 13.2588 102.349 13.5964 102.349 13.5964C101.904 14.4836 101.597 14.7924 100.671 14.5523C100.047 14.3907 99.6586 14.3258 99.0534 14.3152C97.5561 14.2865 96.5157 15.4146 96.5157 17.8174V19.237H100.289C100.792 19.237 101.202 19.6462 101.202 20.1559V22.502C101.202 23.0079 100.796 23.421 100.289 23.421H96.5157ZM122.856 31.4575C122.856 27.6246 125.662 25.8033 129.157 25.8033C130.693 25.8033 132.229 26.3062 133.077 26.9277V26.3848C133.077 23.831 132.272 22.4333 129.849 22.4333C128.544 22.4333 127.311 22.7104 126.506 22.9793C125.768 23.2737 125.309 22.9188 125.041 22.3548C124.774 21.7907 124.632 21.2976 124.642 20.9178C124.66 20.4074 124.838 20.1197 125.982 19.5662C126.769 19.1864 128.541 18.7122 130.308 18.7122C135.417 18.7122 137.221 21.3452 137.221 25.9536V35.6453C137.221 36.152 136.814 36.5651 136.309 36.5651H134.213C133.75 36.5651 133.376 36.1875 133.376 35.7208V34.5504C132.453 35.8643 130.611 36.7954 128.266 36.7954C125.123 36.8029 122.856 34.8268 122.856 31.4568V31.4575ZM133.077 29.6755C132.307 29.0941 131.309 28.8237 130.04 28.8237C128.58 28.8237 127.276 29.5207 127.276 30.9939C127.276 32.3123 128.351 33.0448 129.734 33.0448C131.577 33.0448 132.538 32.233 133.077 31.4575V29.6755ZM148.45 32.8507C149.91 32.8507 151.333 32.039 152.33 30.7213V20.0615C152.33 19.5556 152.736 19.1426 153.243 19.1426H155.837C156.339 19.1426 156.749 19.5518 156.749 20.0615V35.6521C156.749 36.1581 156.343 36.5718 155.837 36.5718H153.168C152.704 36.5718 152.33 36.1943 152.33 35.7276V34.4561C151.293 35.7344 149.486 36.9955 146.8 36.9955C143.418 36.9955 140.731 34.7906 140.731 29.7933V20.0623C140.731 19.5564 141.138 19.1433 141.643 19.1433H144.238C144.74 19.1433 145.15 19.5526 145.15 20.0623V28.8638C145.147 31.188 146.03 32.8507 148.45 32.8507ZM171.117 34.5859C171.216 34.9635 171.084 35.4014 170.603 35.6959C169.128 36.6119 167.828 36.957 166.099 36.957C162.179 36.957 160.722 34.3994 160.722 29.9481V14.951C160.722 14.4443 161.128 14.0313 161.634 14.0313H164.228C164.73 14.0313 165.14 14.4406 165.14 14.951V19.1464H169.356C169.858 19.1464 170.268 19.5564 170.268 20.0661V22.4122C170.268 22.9181 169.862 23.3319 169.356 23.3319H165.14V29.6823C165.14 31.5791 165.757 32.819 167.214 32.819C167.674 32.819 168.094 32.7254 168.444 32.6249C168.917 32.4883 169.499 32.3304 169.826 32.4633C170.119 32.5819 170.296 32.7933 170.517 33.2033C170.799 33.7274 171.016 34.1948 171.117 34.5859ZM66.498 11.9336H64.0247C63.874 11.9334 63.7248 11.9632 63.5855 12.0212C63.4462 12.0792 63.3197 12.1644 63.2131 12.2717C63.1065 12.3791 63.022 12.5066 62.9644 12.647C62.9067 12.7873 62.8771 12.9378 62.8772 13.0897V15.3776C62.8769 15.5297 62.9064 15.6803 62.9639 15.8208C63.0215 15.9613 63.106 16.089 63.2126 16.1966C63.3192 16.3041 63.4458 16.3894 63.5852 16.4475C63.7245 16.5056 63.8739 16.5354 64.0247 16.5352H66.4972C66.648 16.5354 66.7973 16.5056 66.9366 16.4476C67.0759 16.3895 67.2025 16.3043 67.3091 16.1968C67.4156 16.0894 67.5002 15.9618 67.5578 15.8213C67.6154 15.6809 67.6449 15.5304 67.6447 15.3784V13.0904C67.6447 12.4546 67.1316 11.9336 66.4972 11.9336H66.498ZM111.963 18.719H111.383C106.454 18.719 102.46 22.7459 102.46 27.7137V28.0014C102.46 32.97 106.454 36.9962 111.383 36.9962H111.963C116.892 36.9962 120.887 32.9693 120.887 28.0014V27.7145C120.887 22.7459 116.892 18.719 111.963 18.719ZM111.675 32.8469C108.963 32.8469 106.761 30.6126 106.761 27.858C106.761 25.1018 108.96 22.8645 111.675 22.8645C114.387 22.8645 116.589 25.0996 116.589 27.858C116.589 30.6164 114.387 32.8477 111.675 32.8477V32.8469ZM181.825 18.719H181.244C176.315 18.719 172.321 22.7459 172.321 27.7137V28.0014C172.321 32.97 176.315 36.9962 181.244 36.9962H181.825C186.753 36.9962 190.748 32.9693 190.748 28.0014V27.7145C190.748 22.7459 186.753 18.719 181.825 18.719ZM181.532 32.8469C178.821 32.8469 176.619 30.6126 176.619 27.858C176.619 25.1018 178.817 22.8645 181.532 22.8645C184.244 22.8645 186.447 25.0996 186.447 27.858C186.447 30.6164 184.248 32.8477 181.532 32.8477V32.8469Z" fill="#16162D"/>
</svg>
