<?xml version="1.0" encoding="utf-8"?><svg width="25" height="19" fill="none" xmlns="http://www.w3.org/2000/svg" viewBox="0 0 25 19"><g clip-path="url(#aclip0)" stroke="#fff" stroke-miterlimit="10" stroke-linecap="round" stroke-linejoin="round"><path d="M6.712 13.745c1.128-.694 3.644-1.202 4.979-1.542 2.667-.69 5.57-.712 7.983-.22 3.34.673 3.07 4.58 2.607 6.83M15.008 5.704C15.21 3.56 16.11 1.235 16.926.103c.956 1.334 2.088 4.687 1.928 7.168-.095 1.418-.614 2.554-1.833 2.857a.53.53 0 01-.095.023c-1.69-.556-2.113-2.423-1.918-4.447zM9.89 5.408c.71 2.217.952 5.15-.89 5.597-.018.01-.043.014-.065.018-1.763-.58-1.734-3.007-1.157-5.078.298-1.075.739-2.05 1.157-2.627.326.46.676 1.217.956 2.09zM2.876 15.569c-3.486-1.151-1.583-7.845 0-10.048.592.825 1.256 2.429 1.63 4.117.276 1.235.402 2.513.236 3.57-.175 1.173-.705 2.079-1.777 2.338-.029.008-.062.018-.089.023z"/><path d="M4.86 13.224c.665-.43 1.285-.11 1.9.519 1.477 1.519 2.911 4.841 4.784 3.942 2.036-.986 3.07-4.965 4.072-3.603.718.976.873 2.119 1.577 2.485.279.156.645.179 1.17.025.33-.093.63-.085.899-.005 1.254.387 1.897 2.31 1.897 2.31M.104 18.897h24.221M1.473 18.897S1.014 16.6 2.876 15.57M17.021 10.128V11.6M8.918 11.245v1.551"/></g><defs><clipPath id="aclip0"><path fill="#fff" d="M0 0h24.429v19H0z"/></clipPath></defs></svg>