<?xml version="1.0" encoding="utf-8"?><svg width="41" height="18" fill="none" xmlns="http://www.w3.org/2000/svg" viewBox="0 0 41 18"><path d="M39.289 9.404c-.442-1.013-1.313-1.577-2.615-2.055-1.013-.374-1.57-.667-2.251-1.516C31.9 2.704 31.063 0 27.309 0l-8.826.068c-1.52 0-2.88 1.363-4.085 2.312L9.496 6.94a2.196 2.196 0 01-1.045.538L3.024 8.59c-.5.132-.902.503-1.077.999L.313 14.092C-.005 15.17.17 15.655.745 16.49c.574.838 1.056 1.298 1.056 1.298l4.084.004c-.003-.082-.01-.493-.01-.575 0-2.536 2.012-4.591 4.495-4.591s4.495 2.055 4.495 4.591c0 .082-.007.496-.01.575h10.47a29.786 29.786 0 01-.01-.575c0-2.536 2.012-4.591 4.495-4.591s4.495 2.055 4.495 4.591c0 .082-.007.496-.01.575h3.239c2.009 0 2.676-1.688 2.619-3.721-.068-2.037-.382-3.571-.864-4.667zM22.293 8.291c0 .35-.268.635-.596.635h-9.978c-.36 0-.528-.478-.257-.728 0 0 4.798-4.655 5.433-5.13.635-.474 1.242-.845 2.044-.845l2.755.003c.328 0 .596.286.596.635v5.43h.003zm10.268.635h-8.388c-.328 0-.596-.285-.596-.635V2.865c0-.35.264-.635.593-.635l3.546-.018c1.413-.007 1.966.849 2.615 1.762.774 1.092 2.387 3.6 2.65 4.075.26.47-.085.877-.42.877z" fill="#16162D"/></svg>