<?xml version="1.0" encoding="utf-8"?><svg width="38" height="26" fill="none" xmlns="http://www.w3.org/2000/svg" viewBox="0 0 38 26"><g clip-path="url(#eclip0)"><path d="M36.253 4.249V.98a.98.98 0 00-.981-.98h-7.896a.98.98 0 00-.98.981V4.25a.98.98 0 00.98.981h2.465v5.992h-7.367c-.753-2.177-2.697-3.947-5.45-3.947-2.751 0-4.696 1.775-5.449 3.947H8.643c-.447-1.081-1.196-1.465-2.136-1.866V5.23h2.465a.98.98 0 00.98-.981V.98a.98.98 0 00-.98-.98H1.074a.98.98 0 00-.98.981V4.25a.98.98 0 00.981.981H3.54v4.126C2.006 9.82.961 11.149.961 12.902c0 1.752 1.013 3.062 2.579 3.546v4.322H1.074a.98.98 0 00-.98.98v3.268a.98.98 0 00.981.982h7.896a.98.98 0 00.98-.981V21.75a.98.98 0 00-.98-.981H6.506v-4.322c.94-.397 1.689-.785 2.136-1.867h2.934c.754 2.177 2.675 3.948 5.45 3.948 2.774 0 4.696-1.775 5.449-3.948h7.366v6.184h-2.465a.98.98 0 00-.98.982v3.267a.98.98 0 00.98.981h7.896a.98.98 0 00.981-.98v-3.268a.98.98 0 00-.981-.982h-2.465V5.225h2.465a.97.97 0 00.981-.976zM17.026 15.458a2.55 2.55 0 11-.002-5.102 2.55 2.55 0 01.002 5.102z" fill="#16162D"/></g><defs><clipPath id="eclip0"><path fill="#fff" transform="translate(.094)" d="M0 0h37v26H0z"/></clipPath></defs></svg>