<?xml version="1.0" encoding="utf-8"?><svg width="13" height="14" xmlns="http://www.w3.org/2000/svg" viewBox="0 0 13 14"><path d="M12.196 10.313L9.727 9.18a.674.674 0 00-.676.063l-.975.7a.951.951 0 01-1.006.07c-.401-.212-3.271-3.098-3.483-3.49a.951.951 0 01.07-1.007l.7-.975a.674.674 0 00.063-.677L3.288 1.397a.812.812 0 00-.74-.472h-.817a.775.775 0 00-.299.055C-.093 1.632.002 3.527.002 3.527c0 2.807 2.327 5.402 3.435 6.48.967 1.021 3.68 3.6 6.636 3.6 0 0 1.887.095 2.548-1.43a.776.776 0 00.055-.3v-.817a.814.814 0 00-.48-.747z"/></svg>