<?xml version="1.0" encoding="utf-8"?><svg width="15" height="9" fill="none" xmlns="http://www.w3.org/2000/svg" viewBox="0 0 15 9"><path d="M14.806 4.077c-.132-.156-3.28-3.8-7.306-3.8-4.025 0-7.174 3.644-7.306 3.8a.808.808 0 000 1.052c.132.155 3.28 3.799 7.306 3.799 4.025 0 7.174-3.644 7.306-3.8a.808.808 0 000-1.051zM8.73 2.467c.27-.148.648.021.842.378.195.357.134.766-.137.914-.27.148-.648-.022-.843-.379-.195-.357-.133-.766.138-.914zM7.5 7.606c-2.812 0-5.178-2.159-5.997-3.004.553-.572 1.812-1.741 3.437-2.44a3.062 3.062 0 105.12 0c1.625.699 2.884 1.868 3.437 2.44-.82.846-3.185 3.005-5.997 3.005z" fill="#CCC"/></svg>