<?xml version="1.0" encoding="utf-8"?><svg width="35" height="26" fill="none" xmlns="http://www.w3.org/2000/svg" viewBox="0 0 35 26"><path d="M33.27 6.88h-2.283a.838.838 0 00-.836.835v1.341h-4.092L24.798 7.03a2.261 2.261 0 00-1.951-1.12h-3.331V3.16h4.499c.517 0 .938-.42.938-.938V.938A.938.938 0 0024.014 0H11.84a.938.938 0 00-.938.938V2.22c0 .517.42.938.938.938h4.03V5.91h-2.646c-.65 0-1.27.28-1.698.766L9.323 9.052h-1.88c-.607 0-1.093.49-1.093 1.092v3.765H3.359V8.77a.938.938 0 00-.938-.938h-1.39a.938.938 0 00-.937.936v13.609c0 .517.42.938.938.938h1.389c.518 0 .938-.42.938-.938v-4.818h2.99v3.849c0 .606.492 1.093 1.093 1.093h3.46l2.517 2.76c.43.47 1.035.739 1.672.739h7.96c.636 0 1.242-.265 1.671-.739l2.518-2.76h2.915v1.31c0 .46.376.835.836.835h2.283a.829.829 0 00.828-.827V7.698a.83.83 0 00-.832-.819v.001zm-8.455 9.25c0 .518-.283.938-.637.938h-11.82c-.35 0-.638-.42-.638-.938v-1.066c0-.518.284-.938.637-.938h11.821c.35 0 .637.42.637.938v1.066z" fill="#16162D"/></svg>