<?xml version="1.0" encoding="utf-8"?><svg width="20" height="20" fill="none" xmlns="http://www.w3.org/2000/svg" viewBox="0 0 20 20"><g clip-path="url(#kclip0)" fill="#000"><path d="M8.456.5C3.843.5.09 4.254.09 8.867c0 4.614 3.754 8.367 8.367 8.367 4.614 0 8.367-3.753 8.367-8.367C16.823 4.254 13.07.5 8.456.5zm0 15.19a6.83 6.83 0 01-6.822-6.823 6.83 6.83 0 016.822-6.822 6.83 6.83 0 016.822 6.822 6.83 6.83 0 01-6.822 6.823z"/><path d="M18.863 18.182l-4.429-4.429a.772.772 0 10-1.092 1.092l4.428 4.429a.77.77 0 001.093 0 .772.772 0 000-1.092z"/></g><defs><clipPath id="kclip0"><path fill="#fff" transform="translate(.089 .5)" d="M0 0h19v19H0z"/></clipPath></defs></svg>