<?xml version="1.0" encoding="utf-8"?><svg width="20" height="20" fill="none" xmlns="http://www.w3.org/2000/svg" viewBox="0 0 20 20"><path d="M4.14 18.567h-.58a.888.888 0 01-.888-.889V9.583M16.928 9.583l1.001.885 1.58-1.794-2.581-2.282M3.86 8.532l5.938-5.25 5.814 5.137" stroke="#fff" stroke-miterlimit="10" stroke-linecap="round" stroke-linejoin="round"/><path d="M16.102 5.664L9.798.09.091 8.674l1.58 1.794 1.001-.885M14.503 3.282v-.705M16.928 6.392V2.577M17.737 1.776v.8h-4.043V1.414h3.234M2.88 19.909h14.458M16.928 16.81V9.582M8.78 17.33v-3.249a.62.62 0 00-.62-.62H6.02a.62.62 0 00-.62.62v3.834a.82.82 0 00.82.821h9.663" stroke="#fff" stroke-miterlimit="10" stroke-linecap="round" stroke-linejoin="round"/></svg>