<?xml version="1.0" encoding="utf-8"?><svg width="28" height="28" xmlns="http://www.w3.org/2000/svg" viewBox="0 0 28 28"><g clip-path="url(#lclip0)"><path d="M23.87 9.39l-7.858 1.97-1.106-1.106h-4.559V9.108h1.72V7.527H7.046v1.581h1.72v1.146H.336v4.98H3.31v3.723h12.383l5.95-7.378 1.742-.437 1.155 1.155 1.118-1.118-1.789-1.79zM3.31 13.652H1.917v-1.816H3.31v1.816zM26.905 16.212l-1.806-2.483-1.806 2.483c-.65.893-.554 2.11.227 2.891.422.422.983.654 1.579.654s1.157-.232 1.579-.654a2.222 2.222 0 00.227-2.892z"/></g><defs><clipPath id="lclip0"><path fill="#fff" transform="translate(.335 .142)" d="M0 0h27v27H0z"/></clipPath></defs></svg>