<?xml version="1.0" encoding="utf-8"?><svg width="34" height="33" fill="none" xmlns="http://www.w3.org/2000/svg" viewBox="0 0 34 33"><g clip-path="url(#pclip0)" fill="#16162D"><path d="M17.623.029h-.057C8.53.689 1.223 7.997.568 17.026a.772.772 0 00.765.813h7.428a.392.392 0 00.382-.349c.493-4.524 4.32-8.34 8.906-8.877a.382.382 0 00.334-.377V.799a.754.754 0 00-.248-.565.74.74 0 00-.512-.205z"/><path d="M19.699 4.558v3.907c0 .746-.555 1.373-1.297 1.459-4.026.473-7.513 3.946-7.948 7.91A1.476 1.476 0 018.99 19.16H5.093c.286 7.518 6.47 13.525 14.056 13.525 7.771 0 14.07-6.298 14.07-14.07.01-7.585-6.002-13.77-13.52-14.056zm-.546 19.135a5.074 5.074 0 115.075-5.074 5.068 5.068 0 01-5.075 5.074z"/></g><defs><clipPath id="pclip0"><path fill="#fff" transform="translate(.477)" d="M0 0h33v33H0z"/></clipPath></defs></svg>