<?xml version="1.0" encoding="utf-8"?><svg width="33" height="26" fill="none" xmlns="http://www.w3.org/2000/svg" viewBox="0 0 33 26"><g clip-path="url(#tclip0)" fill="#16162D"><path d="M26.84 4.663v7.098a.435.435 0 01-.433.433h-8.18v-7.53h-2.984v7.53H6.636v-7.53H3.653v18.044h2.983v-7.531h8.608v7.53h2.983v-7.53h9.05a2.542 2.542 0 002.54-2.542V4.668H26.84v-.005z"/><path d="M7.376 6.993a3.297 3.297 0 10-4.583-4.74 3.297 3.297 0 004.583 4.74zM19.942 5.45a3.297 3.297 0 10-6.417-1.517 3.297 3.297 0 006.417 1.518V5.45zM5.05 26a3.296 3.296 0 10.115-6.592A3.296 3.296 0 005.05 26zm11.688 0a3.296 3.296 0 10.115-6.592A3.296 3.296 0 0016.737 26zM31.49 5.193A3.297 3.297 0 1025 4.03a3.297 3.297 0 006.491 1.163z"/></g><defs><clipPath id="tclip0"><path fill="#fff" transform="translate(.383)" d="M0 0h32v26H0z"/></clipPath></defs></svg>