<?xml version="1.0" encoding="utf-8"?><svg width="21" height="21" fill="none" xmlns="http://www.w3.org/2000/svg" viewBox="0 0 21 21"><g clip-path="url(#uclip0)" fill="#000"><path d="M10.089 11.765c-6.01 0-9.319 2.843-9.319 8.005 0 .403.327.73.73.73h17.178a.73.73 0 00.73-.73c0-5.162-3.31-8.005-9.32-8.005zM2.256 19.04c.288-3.86 2.919-5.815 7.833-5.815s7.545 1.956 7.832 5.815H2.256zM10.089.5c-2.76 0-4.842 2.123-4.842 4.939 0 2.898 2.172 5.255 4.842 5.255 2.67 0 4.842-2.357 4.842-5.255C14.93 2.623 12.849.5 10.089.5zm0 8.735c-1.865 0-3.382-1.703-3.382-3.796 0-2.016 1.422-3.48 3.382-3.48 1.928 0 3.382 1.496 3.382 3.48 0 2.093-1.517 3.796-3.382 3.796z"/></g><defs><clipPath id="uclip0"><path fill="#fff" transform="translate(.089 .5)" d="M0 0h20v20H0z"/></clipPath></defs></svg>