<?xml version="1.0" encoding="utf-8"?><svg width="17" height="17" xmlns="http://www.w3.org/2000/svg" viewBox="0 0 17 17"><path d="M11.826 9.914l-1.434-.658a.391.391 0 00-.393.037l-.566.406a.553.553 0 01-.585.041c-.233-.123-1.9-1.799-2.023-2.027a.553.553 0 01.041-.585l.407-.566a.391.391 0 00.036-.393l-.657-1.434a.472.472 0 00-.43-.274h-.474a.45.45 0 00-.174.032c-.886.38-.831 1.48-.831 1.48 0 1.63 1.352 3.137 1.995 3.763.562.593 2.138 2.091 3.855 2.091 0 0 1.096.055 1.48-.83a.45.45 0 00.031-.174v-.475a.473.473 0 00-.278-.434z"/><path d="M.204 16.362l1.424-4.443A7.942 7.942 0 01.592 7.987C.592 3.58 4.177 0 8.579 0s7.987 3.585 7.987 7.987c0 4.407-3.585 7.987-7.987 7.987a7.986 7.986 0 01-3.932-1.032l-4.443 1.42zm4.63-2.986l.279.173a6.533 6.533 0 003.466.991 6.569 6.569 0 006.562-6.562 6.569 6.569 0 00-6.562-6.562c-3.622 0-6.558 2.95-6.558 6.566 0 1.229.343 2.425.991 3.466l.174.279-.777 2.425 2.425-.776z"/></svg>