<?xml version="1.0" encoding="utf-8"?><svg width="191" height="37" fill="none" xmlns="http://www.w3.org/2000/svg" viewBox="0 0 191 37"><path d="M50.886 14.463h-3.453c-.677 0-1.261.373-1.582.92L43.507 1.817s-1.78.323-3.789.114c-2.755-.283-7.366-3.527-13.395-.09-5.644-3.35-10.273-.143-13.195.108-2.206.188-4.06-.104-4.06-.104L6.778 15.4a1.82 1.82 0 00-1.59-.938H1.737a1.51 1.51 0 00-1.076.45 1.535 1.535 0 00-.445 1.084v1.57a1.544 1.544 0 00.446 1.085 1.52 1.52 0 001.075.448h3.115A5.394 5.394 0 003.5 20.93c-.315.7-.478 1.46-.478 2.229v11.819c0 .408.161.8.448 1.09.286.288.675.45 1.08.45h7.976c.405 0 .793-.162 1.08-.45.287-.29.448-.682.448-1.09v-3.29h24.527v3.29a1.55 1.55 0 00.448 1.09 1.527 1.527 0 001.08.45h7.976a1.516 1.516 0 001.08-.45 1.54 1.54 0 00.448-1.09V23.159c0-.77-.164-1.53-.48-2.23a5.397 5.397 0 00-1.351-1.83h3.096a1.51 1.51 0 001.077-.448 1.532 1.532 0 00.445-1.084v-1.57a1.533 1.533 0 00-.44-1.086 1.508 1.508 0 00-1.074-.448zM9.871 27.758c-.76 0-1.489-.305-2.026-.846a2.9 2.9 0 010-4.084 2.859 2.859 0 012.026-.843 2.84 2.84 0 012.023.845 2.887 2.887 0 01.838 2.04 2.9 2.9 0 01-.838 2.04 2.852 2.852 0 01-2.023.848zm2.145-11.04c-.492 0-.984-.035-1.493-.111l1.742-11.499c.107.004.214.008.321.008 1.66 0 3.179-.435 4.644-.856 1.357-.388 2.75-.7 4.051-.7 1.215 0 2.255.513 3.375 1.24.213.135.338.38.338.639l-.11 11.228c-1.86-1.065-3.36-1.565-4.89-1.565-1.332 0-2.47.37-3.674.765-1.29.417-2.618.85-4.304.85zm23.102 9.825a1.12 1.12 0 01-1.116 1.125H18.516c-.296 0-.58-.119-.789-.33a1.13 1.13 0 010-1.59c.21-.21.493-.329.789-.329h15.486a1.12 1.12 0 011.116 1.124zm1.21-10.68c-1.2-.395-2.336-.765-3.672-.765-1.529 0-3.03.5-4.89 1.566l-.11-11.229a.755.755 0 01.339-.64c1.122-.725 2.163-1.238 3.385-1.238 1.307 0 2.712.312 4.076.703 1.46.42 2.972.852 4.611.852.104 0 .21 0 .314-.008l1.739 11.5c-.51.075-1.001.11-1.493.11-1.682.004-3.011-.43-4.298-.85zm6.537 11.895a2.843 2.843 0 01-2.024-.847 2.887 2.887 0 01-.837-2.042c0-.765.301-1.498.838-2.04a2.85 2.85 0 012.023-.844 2.85 2.85 0 012.023.845c.537.54.838 1.274.838 2.04a2.9 2.9 0 01-.837 2.04 2.853 2.853 0 01-2.024.848zm21.098-8.615h2.594c.503 0 .913.41.913.92v15.59c0 .506-.406.92-.913.92h-2.594a.916.916 0 01-.912-.92v-15.59c0-.507.41-.92.912-.92zm16.015 3.872c-1.496 0-2.726.622-3.763 1.667v10.97c0 .507-.406.92-.912.92h-2.594a.916.916 0 01-.913-.92v-15.59c0-.506.406-.919.913-.919h2.587c.505 0 .919.413.919.923v.665c1.037-.97 2.883-1.897 4.957-1.897 4.226 0 7.105 2.051 7.105 7.512v9.302c0 .507-.406.92-.912.92H84.77a.907.907 0 01-.843-.568.925.925 0 01-.07-.352v-8.527c0-2.787-1.42-4.105-3.88-4.105zm16.538.406v12.232c0 .506-.406.92-.913.92h-2.59a.908.908 0 01-.648-.27.922.922 0 01-.268-.654V17.566c0-4.935 2.306-7.385 6.147-7.375a8.006 8.006 0 013.948 1.074c.663.385.684 1.103.46 1.639-.149.355-.303.692-.303.692-.445.888-.752 1.196-1.678.956-.624-.161-1.012-.226-1.618-.237-1.497-.028-2.537 1.1-2.537 3.502v1.42h3.773c.503 0 .913.41.913.919v2.346a.915.915 0 01-.913.919h-3.773zm26.34 8.037c0-3.833 2.806-5.655 6.301-5.655 1.536 0 3.072.503 3.92 1.125v-.543c0-2.554-.805-3.952-3.228-3.952a11.01 11.01 0 00-3.343.546c-.738.295-1.197-.06-1.465-.624-.267-.564-.409-1.057-.399-1.437.018-.51.196-.798 1.34-1.352.787-.38 2.559-.854 4.326-.854 5.109 0 6.913 2.633 6.913 7.242v9.691c0 .507-.407.92-.912.92h-2.096a.84.84 0 01-.837-.844v-1.17c-.923 1.313-2.765 2.244-5.11 2.244-3.143.008-5.41-1.968-5.41-5.338zm10.221-1.782c-.77-.582-1.768-.852-3.037-.852-1.46 0-2.764.697-2.764 2.17 0 1.318 1.075 2.05 2.458 2.05 1.843 0 2.804-.811 3.343-1.586v-1.782zm15.373 3.175c1.46 0 2.883-.812 3.88-2.13v-10.66c0-.505.406-.918.913-.918h2.594c.502 0 .912.409.912.918v15.591c0 .506-.406.92-.912.92h-2.669a.84.84 0 01-.838-.844v-1.272c-1.037 1.278-2.844 2.54-5.53 2.54-3.382 0-6.069-2.205-6.069-7.203v-9.73c0-.507.407-.92.912-.92h2.595c.502 0 .912.41.912.92v8.8c-.003 2.325.88 3.988 3.3 3.988zm22.667 1.735c.099.378-.033.815-.514 1.11-1.475.916-2.775 1.261-4.504 1.261-3.92 0-5.377-2.558-5.377-7.009V14.951c0-.507.406-.92.912-.92h2.594c.502 0 .912.41.912.92v4.195h4.216c.502 0 .912.41.912.92v2.346c0 .506-.406.92-.912.92h-4.216v6.35c0 1.897.617 3.137 2.074 3.137.46 0 .88-.094 1.23-.194.473-.137 1.055-.295 1.382-.162.293.119.47.33.691.74.282.524.499.992.6 1.383zM66.498 11.934h-2.473a1.138 1.138 0 00-.812.338 1.155 1.155 0 00-.336.818v2.288a1.164 1.164 0 00.336.819 1.145 1.145 0 00.812.338h2.472a1.14 1.14 0 001.06-.714c.058-.14.088-.29.088-.443V13.09c0-.635-.513-1.156-1.148-1.156h.001zm45.465 6.785h-.58c-4.929 0-8.923 4.027-8.923 8.995V28c0 4.969 3.994 8.995 8.923 8.995h.58c4.929 0 8.924-4.027 8.924-8.995v-.287c0-4.968-3.995-8.995-8.924-8.995zm-.288 14.128c-2.712 0-4.914-2.234-4.914-4.989 0-2.756 2.199-4.994 4.914-4.994 2.712 0 4.914 2.236 4.914 4.994 0 2.758-2.202 4.99-4.914 4.99v-.001zm70.15-14.128h-.581c-4.929 0-8.923 4.027-8.923 8.995V28c0 4.969 3.994 8.995 8.923 8.995h.581c4.928 0 8.923-4.027 8.923-8.995v-.287c0-4.968-3.995-8.995-8.923-8.995zm-.293 14.128c-2.711 0-4.913-2.234-4.913-4.989 0-2.756 2.198-4.994 4.913-4.994 2.712 0 4.915 2.236 4.915 4.994 0 2.758-2.199 4.99-4.915 4.99v-.001z" fill="#16162D"/></svg>