<?xml version="1.0" encoding="utf-8"?><svg width="163" height="16" fill="none" xmlns="http://www.w3.org/2000/svg" viewBox="0 0 163 16"><path opacity=".75" d="M7.102.084H.537V15.57h6.565V.084zM91.967.084h-6.565V15.57h6.565V.084z" fill="#fff" fill-opacity=".2"/><path opacity=".75" d="M7.102.084H.537v11.142h6.565c3.063 0 5.547-2.494 5.547-5.57 0-3.077-2.484-5.572-5.547-5.572zM28.831 15.57H18.416V.084L28.831 15.57z" fill="#fff" fill-opacity=".2"/><path opacity=".75" d="M23.285.084h-4.869v11.142h4.869c.817 0 1.592-.179 2.29-.497a5.572 5.572 0 003.256-5.074c0-3.076-2.483-5.57-5.546-5.57zM70.756.084L62.68 15.57h16.153L70.756.084z" fill="#fff" fill-opacity=".2"/><path opacity=".75" d="M62.451.084L54.375 15.57h16.153L62.45.084zM42.674 15.57c4.258 0 7.71-3.466 7.71-7.743 0-4.276-3.452-7.743-7.71-7.743s-7.71 3.467-7.71 7.743c0 4.277 3.452 7.743 7.71 7.743zM154.017.084L145.94 15.57h16.153L154.017.084z" fill="#fff" fill-opacity=".2"/><path opacity=".75" d="M145.711.084l-8.076 15.486h16.153L145.711.084zM126.207 15.57c4.258 0 7.71-3.466 7.71-7.743 0-4.276-3.452-7.743-7.71-7.743s-7.71 3.467-7.71 7.743c0 4.277 3.452 7.743 7.71 7.743zM111.606 2.646a7.676 7.676 0 00-7.358-2.387 7.737 7.737 0 00-6.08 7.568 7.737 7.737 0 006.08 7.568 7.676 7.676 0 007.358-2.387l-2.99-5.18 2.99-5.182z" fill="#fff" fill-opacity=".2"/><path opacity=".75" d="M111.606 2.646a7.674 7.674 0 00-7.358-2.387l4.368 7.568 2.99-5.181zM104.248 15.395a7.674 7.674 0 007.358-2.387l-2.99-5.18-4.368 7.567zM37.222 13.302a7.67 7.67 0 005.451 2.268c4.258 0 7.71-3.466 7.71-7.743a7.735 7.735 0 00-2.258-5.475l-10.903 10.95zM120.756 13.302a7.67 7.67 0 005.452 2.268c4.258 0 7.709-3.466 7.709-7.743a7.736 7.736 0 00-2.258-5.475l-10.903 10.95z" fill="#fff" fill-opacity=".2"/></svg>