<?xml version="1.0" encoding="utf-8"?><svg viewBox="0 0 148 104" xmlns="http://www.w3.org/2000/svg" xmlns:xlink="http://www.w3.org/1999/xlink"><style>:root>svg{display:none}:root>svg:target{display:block}</style><svg fill="none" viewBox="0 0 25 19" id="ic_area" xmlns="http://www.w3.org/2000/svg"><g clip-path="url(#aclip0)" stroke="#fff" stroke-miterlimit="10" stroke-linecap="round" stroke-linejoin="round"><path d="M6.712 13.745c1.128-.694 3.644-1.202 4.979-1.542 2.667-.69 5.57-.712 7.983-.22 3.34.673 3.07 4.58 2.607 6.83M15.008 5.704C15.21 3.56 16.11 1.235 16.926.103c.956 1.334 2.088 4.687 1.928 7.168-.095 1.418-.614 2.554-1.833 2.857a.53.53 0 01-.095.023c-1.69-.556-2.113-2.423-1.918-4.447zM9.89 5.408c.71 2.217.952 5.15-.89 5.597-.018.01-.043.014-.065.018-1.763-.58-1.734-3.007-1.157-5.078.298-1.075.739-2.05 1.157-2.627.326.46.676 1.217.956 2.09zM2.876 15.569c-3.486-1.151-1.583-7.845 0-10.048.592.825 1.256 2.429 1.63 4.117.276 1.235.402 2.513.236 3.57-.175 1.173-.705 2.079-1.777 2.338-.029.008-.062.018-.089.023z"/><path d="M4.86 13.224c.665-.43 1.285-.11 1.9.519 1.477 1.519 2.911 4.841 4.784 3.942 2.036-.986 3.07-4.965 4.072-3.603.718.976.873 2.119 1.577 2.485.279.156.645.179 1.17.025.33-.093.63-.085.899-.005 1.254.387 1.897 2.31 1.897 2.31M.104 18.897h24.221M1.473 18.897S1.014 16.6 2.876 15.57M17.021 10.128V11.6M8.918 11.245v1.551"/></g><defs><clipPath id="aclip0"><path fill="#fff" d="M0 0h24.429v19H0z"/></clipPath></defs></svg><svg viewBox="0 0 13 14" id="ic_call" xmlns="http://www.w3.org/2000/svg"><path d="M12.196 10.313L9.727 9.18a.674.674 0 00-.676.063l-.975.7a.951.951 0 01-1.006.07c-.401-.212-3.271-3.098-3.483-3.49a.951.951 0 01.07-1.007l.7-.975a.674.674 0 00.063-.677L3.288 1.397a.812.812 0 00-.74-.472h-.817a.775.775 0 00-.299.055C-.093 1.632.002 3.527.002 3.527c0 2.807 2.327 5.402 3.435 6.48.967 1.021 3.68 3.6 6.636 3.6 0 0 1.887.095 2.548-1.43a.776.776 0 00.055-.3v-.817a.814.814 0 00-.48-.747z"/></svg><svg fill="none" viewBox="0 0 20 20" id="ic_house" xmlns="http://www.w3.org/2000/svg"><path d="M4.14 18.567h-.58a.888.888 0 01-.888-.889V9.583M16.928 9.583l1.001.885 1.58-1.794-2.581-2.282M3.86 8.532l5.938-5.25 5.814 5.137" stroke="#fff" stroke-miterlimit="10" stroke-linecap="round" stroke-linejoin="round"/><path d="M16.102 5.664L9.798.09.091 8.674l1.58 1.794 1.001-.885M14.503 3.282v-.705M16.928 6.392V2.577M17.737 1.776v.8h-4.043V1.414h3.234M2.88 19.909h14.458M16.928 16.81V9.582M8.78 17.33v-3.249a.62.62 0 00-.62-.62H6.02a.62.62 0 00-.62.62v3.834a.82.82 0 00.82.821h9.663" stroke="#fff" stroke-miterlimit="10" stroke-linecap="round" stroke-linejoin="round"/></svg><svg fill="none" viewBox="0 0 24 23" id="ic_loupe" xmlns="http://www.w3.org/2000/svg"><path stroke="#000" d="M14.308 14.101l8.485 8.485"/><circle cx="8.5" cy="8.5" r="8" stroke="#000"/></svg><svg fill="none" viewBox="0 0 27 1" id="ic_minus" xmlns="http://www.w3.org/2000/svg"><path stroke="#000" d="M27 .5H0"/></svg><svg viewBox="0 0 60 60" id="ic_next-swiper" xmlns="http://www.w3.org/2000/svg"><rect x=".5" y=".5" width="59" height="59" rx="29.5"/><path d="M22.5 47L39 30.5 22.5 14"/></svg><svg fill="none" viewBox="0 0 60 60" id="ic_next-swiper-blue" xmlns="http://www.w3.org/2000/svg"><rect width="60" height="60" rx="30" fill="#D3EDF5"/><path d="M22.5 47L39 30.5 22.5 14" stroke="#000"/></svg><svg fill="none" viewBox="0 0 17 24" id="ic_pen" xmlns="http://www.w3.org/2000/svg"><path d="M8.881.858C4.404.858.762 4.5.762 8.976c0 5.556 7.426 13.712 7.735 14.057.29.323.273.323.563 0 .31-.345 7.94-8.5 7.94-14.057C17 4.5 13.358.858 8.881.858z" fill="#5D92A3"/><path d="M9 14A5 5 0 109 4a5 5 0 000 10z" fill="#fff"/><circle cx="9" cy="9" r="2" fill="#5D92A3"/></svg><svg fill="none" viewBox="0 0 148 104" id="ic_play" xmlns="http://www.w3.org/2000/svg"><rect x=".786" y=".357" width="146.429" height="103.571" rx="18" fill="#fff"/><path d="M102.571 51.957L56.143 27.143V78.93l46.428-26.972z" fill="#242424" stroke="#000"/></svg><svg fill="none" viewBox="0 0 27 27" id="ic_plus" xmlns="http://www.w3.org/2000/svg"><path stroke="#000" d="M27 13.5H0M13.5 27V0"/></svg><svg viewBox="0 0 60 60" id="ic_prev-swiper" xmlns="http://www.w3.org/2000/svg"><rect x="-.5" y=".5" width="59" height="59" rx="29.5" transform="matrix(-1 0 0 1 59 0)"/><path d="M37.5 47L21 30.5 37.5 14"/></svg><svg fill="none" viewBox="0 0 60 60" id="ic_prev-swiper-blue" xmlns="http://www.w3.org/2000/svg"><rect width="60" height="60" rx="30" transform="matrix(-1 0 0 1 60 0)" fill="#D3EDF5"/><path d="M37.5 47L21 30.5 37.5 14" stroke="#000"/></svg><svg fill="none" viewBox="0 0 18 16" id="ic_tg" xmlns="http://www.w3.org/2000/svg"><path d="M15.763.166L1.727 6.734c-1.106.517-.954 1.853.255 2.193l3.72 1.05 8.42-5.352L8.28 10.7v3.533c0 .37.547.562.881.306l2.195-1.695 2.79 2.06c.918.675 2.389.207 2.492-.794l1.355-12.796c.11-.97-1.185-1.64-2.23-1.148z" fill="#fff"/></svg><svg fill="none" viewBox="0 0 17 17" id="ic_wa" xmlns="http://www.w3.org/2000/svg"><path d="M11.826 9.914l-1.434-.658a.391.391 0 00-.393.037l-.566.406a.553.553 0 01-.585.041c-.233-.123-1.9-1.799-2.023-2.027a.553.553 0 01.041-.585l.407-.566a.391.391 0 00.036-.393l-.657-1.434a.472.472 0 00-.43-.274h-.474a.45.45 0 00-.174.032c-.886.38-.831 1.48-.831 1.48 0 1.63 1.352 3.137 1.995 3.763.562.593 2.138 2.091 3.855 2.091 0 0 1.096.055 1.48-.83a.45.45 0 00.031-.174v-.475a.473.473 0 00-.278-.434z" fill="#fff"/><path d="M.204 16.362l1.424-4.443A7.942 7.942 0 01.592 7.987C.592 3.58 4.177 0 8.579 0s7.987 3.585 7.987 7.987c0 4.407-3.585 7.987-7.987 7.987a7.986 7.986 0 01-3.932-1.032l-4.443 1.42zm4.63-2.986l.279.173a6.533 6.533 0 003.466.991 6.569 6.569 0 006.562-6.562 6.569 6.569 0 00-6.562-6.562c-3.622 0-6.558 2.95-6.558 6.566 0 1.229.343 2.425.991 3.466l.174.279-.777 2.425 2.425-.776z" fill="#fff"/></svg></svg>